<svg width="33" height="20" viewBox="0 0 43 29" fill="none" xmlns="http://www.w3.org/2000/svg">
<path fill-rule="evenodd" clip-rule="evenodd" d="M1.25378 4.20812L1.41366 4.15093C6.27742 2.41139 9.95744 1.94009 13.0865 2.15781C16.197 2.37424 18.698 3.27042 21.139 4.14512L21.1569 4.15153C24.2624 5.26845 27.2789 6.34143 31.327 6.34143C34.2715 6.34143 37.7957 5.76923 42.3017 4.15135C42.8496 3.95469 43.1322 3.35227 42.9387 2.81348C42.7421 2.26563 42.1397 1.98309 41.6009 2.1765L41.5998 2.1769C36.736 3.91644 33.056 4.38774 29.9269 4.17002C26.8165 3.95359 24.3155 3.05741 21.8745 2.18271L21.8602 2.17759C19.1686 1.22117 16.5569 0.293151 13.2859 0.0570657C10.0268 -0.178157 6.05157 0.272272 0.700099 2.1894C0.166348 2.38463 -0.119584 2.98674 0.0747094 3.52798C0.25222 4.02248 0.760291 4.30082 1.25378 4.20812Z" fill="#3D3D3D"/>
<path fill-rule="evenodd" clip-rule="evenodd" d="M1.25378 15.2081L1.41366 15.1509C6.27742 13.4114 9.95744 12.9401 13.0865 13.1578C16.197 13.3742 18.698 14.2704 21.139 15.1451L21.1569 15.1515C24.2624 16.2685 27.2789 17.3414 31.327 17.3414C34.2715 17.3414 37.7957 16.7692 42.3017 15.1514C42.8496 14.9547 43.1322 14.3523 42.9387 13.8135C42.7421 13.2656 42.1397 12.9831 41.6009 13.1765L41.5998 13.1769C36.736 14.9164 33.056 15.3877 29.9269 15.17C26.8165 14.9536 24.3155 14.0574 21.8745 13.1827L21.8602 13.1776C19.1686 12.2212 16.5569 11.2932 13.2859 11.0571C10.0268 10.8218 6.05157 11.2723 0.700099 13.1894C0.166348 13.3846 -0.119584 13.9867 0.0747094 14.528C0.25222 15.0225 0.760291 15.3008 1.25378 15.2081Z" fill="#3D3D3D"/>
<path fill-rule="evenodd" clip-rule="evenodd" d="M1.25378 26.2081L1.41366 26.1509C6.27742 24.4114 9.95744 23.9401 13.0865 24.1578C16.197 24.3742 18.698 25.2704 21.139 26.1451L21.1569 26.1515C24.2624 27.2685 27.2789 28.3414 31.327 28.3414C34.2715 28.3414 37.7957 27.7692 42.3017 26.1514C42.8496 25.9547 43.1322 25.3523 42.9387 24.8135C42.7421 24.2656 42.1397 23.9831 41.6009 24.1765L41.5998 24.1769C36.736 25.9164 33.056 26.3877 29.9269 26.17C26.8165 25.9536 24.3155 25.0574 21.8745 24.1827L21.8602 24.1776C19.1686 23.2212 16.5569 22.2932 13.2859 22.0571C10.0268 21.8218 6.05157 22.2723 0.700099 24.1894C0.166348 24.3846 -0.119584 24.9867 0.0747094 25.528C0.25222 26.0225 0.760291 26.3008 1.25378 26.2081Z" fill="#3D3D3D"/>
</svg>
