<svg width="47" height="25" viewBox="0 0 47 25" fill="none" xmlns="http://www.w3.org/2000/svg">
<g id="Menu">
<path id="Line 15 (Stroke)" fill-rule="evenodd" clip-rule="evenodd" d="M47.0009 1.68507C47.0009 1.20438 46.6112 0.814697 46.1305 0.814697H0.871223C0.390533 0.814697 0.000854492 1.20438 0.000854492 1.68507C0.000854492 2.16576 0.390533 2.55544 0.871223 2.55544H46.1305C46.6112 2.55544 47.0009 2.16576 47.0009 1.68507Z" fill="#F3EDDF"/>
<path id="Line 16 (Stroke)" fill-rule="evenodd" clip-rule="evenodd" d="M47.0009 12.9995C47.0009 12.5188 46.6112 12.1292 46.1305 12.1292H0.871223C0.390533 12.1292 0.000854492 12.5188 0.000854492 12.9995C0.000854492 13.4802 0.390533 13.8699 0.871223 13.8699H46.1305C46.6112 13.8699 47.0009 13.4802 47.0009 12.9995Z" fill="#F3EDDF"/>
<path id="Line 17 (Stroke)" fill-rule="evenodd" clip-rule="evenodd" d="M47 24C47 23.4477 46.499 23 45.881 23H1.11905C0.501015 23 0 23.4477 0 24C0 24.5523 0.501015 25 1.11905 25H45.881C46.499 25 47 24.5523 47 24Z" fill="#F3EDDF"/>
</g>
</svg>
