<svg width="1277" height="613" viewBox="0 0 1277 613" fill="none" xmlns="http://www.w3.org/2000/svg">
<g opacity="0.1">
<g clip-path="url(#clip0_2113_10995)">
<path d="M1185.77 -354.585L1129.8 -410.556L1129.33 -410.084L1128.86 -410.556L1072.42 -354.112L1073.36 -353.168L1129.33 -409.139L1184.83 -353.64L1128.86 -297.669L1129.8 -296.724L1185.77 -352.695L1241.75 -296.724L1242.22 -297.196L1242.69 -296.724L1298.66 -352.695L1354.16 -297.196L1298.19 -241.225L1242.22 -185.253L1186.25 -241.225L1185.77 -240.753L1185.3 -241.225L1128.86 -184.781L1129.33 -184.309L1128.86 -183.836L1185.3 -127.393L1241.75 -70.9488L1297.72 -14.9774L1241.75 40.9941L1242.69 41.9388L1298.66 -14.0327L1354.63 41.9388L1355.58 40.9941L1299.61 -14.9774L1355.58 -70.9488L1412.02 -127.393L1411.55 -127.865L1412.02 -128.337L1355.58 -184.781L1299.61 -240.753L1355.11 -296.252L1411.08 -240.28L1467.52 -183.836L1468.47 -184.781L1412.49 -240.753L1468.47 -296.724L1467.99 -297.196L1468.47 -297.669L1412.02 -354.112L1411.55 -353.64L1411.08 -354.112L1355.11 -298.141L1299.13 -354.112L1243.16 -410.084L1299.13 -466.055L1298.19 -467L1242.22 -411.029L1186.25 -467L1185.3 -466.055L1241.27 -410.084L1185.77 -354.585ZM1130.28 -184.309L1185.77 -239.808L1241.27 -184.309L1185.77 -128.81L1130.28 -184.309ZM1186.72 -127.865L1242.22 -183.364L1297.72 -127.865L1242.22 -72.3658L1186.72 -127.865ZM1298.66 -126.92L1354.16 -71.4211L1298.66 -15.922L1243.16 -71.4211L1298.66 -126.92ZM1410.59 -127.865L1355.09 -72.3658L1299.12 -128.337L1243.15 -184.309L1298.65 -239.808L1354.62 -183.836L1410.59 -127.865ZM1467.03 -297.196L1411.53 -241.697L1356.03 -297.196L1411.53 -352.695L1467.03 -297.196ZM1186.72 -353.64L1242.22 -409.139L1297.72 -353.64L1242.22 -298.141L1186.72 -353.64Z" fill="#ACA087"/>
<path d="M225.775 -14.5052L282.219 41.9386L282.691 41.4663L283.163 41.9386L339.607 -14.5052L339.135 -14.9776L339.607 -15.4499L283.163 -71.8937L282.691 -71.4213L282.219 -71.8937L226.247 -15.9222L170.276 -71.8937L113.832 -128.337L57.388 -184.781L56.4434 -183.837L112.887 -127.393L169.331 -70.949L225.775 -14.5052ZM338.173 -14.9776L282.674 40.5215L227.175 -14.9776L282.674 -70.4767L338.173 -14.9776Z" fill="#ACA087"/>
<path d="M903.084 -14.5046L959.528 41.9393L1015.97 98.3831L1016.92 97.4215L960.472 40.9777L904.029 -15.4492L903.084 -14.5046Z" fill="#ACA087"/>
<path d="M113.833 98.3829L170.277 41.9391L169.332 40.9775L113.36 96.949L57.389 40.9775L56.4443 41.9391L112.416 97.9105L56.4443 153.865L57.389 154.827L113.833 98.3829Z" fill="#ACA087"/>
<path d="M338.662 98.3822L394.634 154.354L339.135 209.853L283.163 153.881L282.691 154.354L282.219 153.881L226.247 209.853L170.276 153.881L169.331 154.826L225.775 211.27L282.219 267.714L338.662 324.157L395.106 380.601L396.051 379.656L339.607 323.213L283.636 267.241L339.135 211.742L395.106 267.714L395.579 267.241L396.051 267.714L452.495 211.27L452.022 210.797L452.495 210.325L396.051 153.881L339.607 97.4375L338.662 98.3822ZM227.192 210.781L282.691 155.281L338.19 210.781L282.691 266.28L227.192 210.781ZM451.061 210.781L395.562 266.28L340.063 210.781L395.562 155.281L451.061 210.781Z" fill="#ACA087"/>
<path d="M565.383 153.865L508.939 97.4213L452.495 40.9775L451.551 41.9391L507.978 98.3829L564.422 154.827L565.383 153.865Z" fill="#ACA087"/>
<path d="M1186.26 97.4315L1185.3 98.3857L1241.75 154.83L1242.7 153.876L1186.26 97.4315Z" fill="#ACA087"/>
<path d="M733.752 154.827L789.724 210.781L734.225 266.281L678.27 210.309L677.309 211.271L733.752 267.714L790.196 324.141L791.141 323.197L735.186 267.225L791.141 211.271L790.668 210.781L791.141 210.309L734.714 153.865L733.752 154.827Z" fill="#ACA087"/>
<path d="M0.942537 210.305L-0.0117188 211.259L56.4326 267.703L57.3868 266.749L0.942537 210.305Z" fill="#ACA087"/>
<path d="M56.9161 323.669L57.3885 324.141L113.832 267.697L113.36 267.225L113.832 266.752L57.8608 210.781L113.36 155.282L169.331 211.253L225.775 267.697L282.219 324.141L338.19 380.112L282.219 436.084L226.247 492.055L170.276 436.084L113.832 379.64L112.888 380.585L169.331 437.028L225.775 493.472L282.219 549.916L282.691 549.444L283.164 549.916L339.607 493.472L338.663 492.528L282.691 548.499L227.192 493L283.164 437.028L339.135 381.057L395.107 437.028L451.55 493.472L452.495 492.528L396.524 436.556L452.495 380.585L508.466 324.613L564.438 380.585L565.383 379.64L508.939 323.196L452.967 267.225L508.466 211.726L564.438 267.697L565.383 266.752L508.939 210.309L452.495 153.865L396.051 97.421L340.08 41.4496L396.051 -14.5219L395.579 -14.9942L396.051 -15.4665L340.08 -71.438L395.579 -126.937L451.55 -70.9657L507.994 -14.5219L564.438 41.9219L620.882 98.3657L621.826 97.421L565.383 40.9773L508.939 -15.4665L452.495 -71.9103L396.524 -127.882L452.495 -183.853L452.023 -184.326L452.495 -184.798L396.051 -241.242L395.107 -240.297L451.078 -184.326L395.107 -128.354L339.135 -72.3827L283.164 -128.354L226.72 -184.798L170.276 -241.242L113.832 -297.685L57.8608 -353.657L113.36 -409.156L169.331 -353.185L225.775 -296.741L282.219 -240.297L338.663 -183.853L339.607 -184.798L283.164 -241.242L226.72 -297.685L170.748 -353.657L226.72 -409.628L226.247 -410.101L226.72 -410.573L170.276 -467L169.331 -466.055L225.303 -410.084L169.804 -354.585L113.832 -410.556L57.3885 -467L56.9161 -466.528L56.4438 -467L0 -410.556L0.472333 -410.084L0 -409.612L55.9715 -353.64L0 -297.669L0.472333 -297.196L0 -296.724L55.9715 -240.753L0 -184.781L0.472333 -184.309L0 -183.836L55.9715 -127.865L0 -71.8935L0.944666 -70.9488L56.9161 -126.92L112.415 -71.4211L56.4438 -15.4497L0 40.9773L0.472333 41.4496L0 41.9219L55.9715 97.8934L0 153.865L0.472333 154.337L0 154.809L56.4438 211.253L112.415 267.225L56.9161 322.724L0.944666 266.752L0 267.697L56.4438 324.141L56.9161 323.669ZM452.023 268.186L507.522 323.685L452.023 379.185L396.524 323.685L452.023 268.186ZM451.55 154.826L507.522 210.798L451.55 266.769L395.579 322.741L339.607 266.769L338.663 267.714L395.107 324.158L451.078 380.129L395.579 435.628L339.607 379.657L283.164 323.213L226.72 266.769L170.276 210.325L114.305 154.354L169.804 98.8549L225.775 154.826L226.247 154.354L226.72 154.826L282.691 98.8549L338.663 154.826L339.607 153.882L283.636 97.9102L339.135 42.4111L395.107 98.3826L451.55 154.826ZM226.247 42.4111L281.747 97.9102L226.247 153.409L170.748 97.9102L226.247 42.4111ZM225.775 -183.836L281.747 -127.865L226.247 -72.3658L170.276 -128.337L114.305 -184.309L169.804 -239.808L225.775 -183.836ZM168.859 -240.753L113.36 -185.253L57.3885 -241.225L1.417 -297.196L56.9161 -352.695L112.888 -296.724L168.859 -240.753ZM112.415 -410.084L56.9161 -354.585L1.417 -410.084L56.9161 -465.583L112.415 -410.084ZM1.417 -184.309L56.9161 -239.808L112.888 -183.836L169.331 -127.393L225.775 -70.9488L226.247 -71.4211L226.72 -70.9488L282.691 -126.92L338.663 -70.9488L394.634 -14.9774L338.663 40.9941L282.691 96.9656L226.72 40.9941L170.276 -15.4497L113.832 -71.8935L57.3885 -128.337L1.417 -184.309ZM113.36 40.5049L57.8608 -14.9942L113.36 -70.4933L168.859 -14.9942L113.36 40.5049ZM1.417 154.337L57.3885 98.3657L56.9161 97.8934L57.3885 97.421L1.417 41.4665L56.9161 -14.0327L112.888 41.9388L113.36 41.4665L113.832 41.9388L169.804 -14.0327L225.303 41.4665L169.331 97.4379L112.888 153.882L56.9161 209.853L1.417 154.337Z" fill="#ACA087"/>
<path d="M170.273 323.192L169.318 324.146L225.763 380.591L226.717 379.637L170.273 323.192Z" fill="#ACA087"/>
<path d="M1186.24 323.194L1185.29 324.148L1241.73 380.593L1242.69 379.638L1186.24 323.194Z" fill="#ACA087"/>
<path d="M1807.11 323.196L1751.14 267.225L1807.11 211.253L1806.64 210.781L1807.11 210.309L1751.14 154.337L1806.64 98.8381L1862.61 154.81L1863.56 153.865L1807.11 97.4211L1750.67 40.9773L1749.72 41.9219L1805.7 97.8934L1749.72 153.865L1693.75 209.836L1638.25 154.337L1694.22 98.3657L1693.75 97.8934L1694.22 97.4211L1638.25 41.4496L1694.22 -14.5218L1693.75 -14.9942L1694.22 -15.4665L1637.78 -71.9103L1637.31 -71.438L1636.84 -71.9103L1580.39 -15.4665L1581.34 -14.5218L1637.31 -70.4933L1692.81 -14.9942L1636.84 40.9773L1637.31 41.4496L1636.84 41.9219L1692.81 97.8934L1637.31 153.393L1581.34 97.4211L1524.89 40.9773L1468.92 -14.9942L1524.89 -70.9656L1523.95 -71.9103L1467.98 -15.9388L1412.48 -71.438L1468.45 -127.409L1524.89 -183.853L1581.34 -240.297L1580.86 -240.769L1581.34 -241.242L1524.89 -297.685L1468.45 -354.129L1412.01 -410.573L1355.58 -467L1355.11 -466.528L1354.63 -467L1298.19 -410.556L1298.66 -410.084L1298.19 -409.612L1354.63 -353.168L1355.11 -353.64L1355.58 -353.168L1411.55 -409.139L1467.52 -353.168L1523.49 -297.196L1467.52 -241.225L1467.99 -240.752L1467.52 -240.28L1523.49 -184.309L1467.99 -128.81L1412.02 -184.781L1355.58 -241.225L1354.63 -240.28L1411.08 -183.836L1467.05 -127.865L1411.08 -71.8934L1354.63 -15.4497L1355.11 -14.9773L1354.63 -14.505L1410.61 41.4665L1355.11 96.9656L1299.14 40.9942L1298.66 41.4665L1298.19 40.9942L1242.22 96.9656L1186.72 41.4665L1242.69 -14.505L1242.22 -14.9773L1242.69 -15.4497L1186.25 -71.8934L1129.8 -128.337L1073.83 -184.309L1129.8 -240.28L1185.78 -296.252L1241.75 -240.28L1242.22 -240.752L1242.69 -240.28L1299.14 -296.724L1298.19 -297.669L1242.22 -241.697L1186.25 -297.669L1185.78 -297.196L1185.3 -297.669L1129.33 -241.697L1073.83 -297.196L1129.8 -353.168L1128.86 -354.112L1072.89 -298.141L1017.39 -353.64L1073.36 -409.612L1129.33 -465.583L1185.3 -409.612L1186.25 -410.556L1129.8 -467L1129.33 -466.528L1128.86 -467L1072.89 -411.029L1016.92 -467L1015.97 -466.055L1071.94 -410.084L1016.44 -354.585L960.472 -410.556L959.528 -409.612L1015.97 -353.168L1072.42 -296.724L1128.39 -240.752L1072.89 -185.253L1016.92 -241.225L960.472 -297.669L904.029 -354.112L847.585 -410.556L846.64 -409.612L903.084 -353.168L959.055 -297.196L903.556 -241.697L847.585 -297.669L791.141 -354.112L790.196 -353.168L846.168 -297.196L790.196 -241.225L791.141 -240.28L847.112 -296.252L902.612 -240.752L846.64 -184.781L847.112 -184.309L846.64 -183.836L903.084 -127.393L903.556 -127.865L904.029 -127.393L960 -183.364L1015.97 -127.393L1016.92 -128.337L960.472 -184.781L904.501 -240.752L960 -296.252L1015.97 -240.28L1072.42 -183.836L1128.39 -127.865L1072.42 -71.8934L1016.44 -15.922L960.472 -71.8934L959.528 -70.9488L1015.97 -14.505L1016.44 -14.9773L1016.92 -14.505L1073.36 -70.9488L1129.33 -126.92L1184.83 -71.4211L1128.86 -15.4497L1072.42 40.9942L1072.89 41.4665L1072.42 41.9388L1128.86 98.3826L1185.3 154.826L1241.75 211.27L1242.22 210.798L1242.69 211.27L1298.66 155.299L1354.63 211.27L1355.11 210.798L1355.58 211.27L1411.55 155.299L1467.05 210.798L1411.08 266.769L1355.11 322.741L1299.14 266.769L1298.66 267.242L1298.19 266.769L1242.22 322.741L1186.25 266.769L1129.8 210.326L1129.33 210.798L1128.86 210.326L1072.89 266.297L1016.92 210.326L1016.44 210.798L1015.97 210.326L960 266.297L904.029 210.326L848.057 154.354L903.556 98.8549L959.528 154.826L960.472 153.882L904.029 97.438L903.556 97.9103L903.084 97.438L846.64 153.882L847.112 154.354L846.64 154.826L903.084 211.27L959.528 267.714L960 267.242L960.472 267.714L1016.44 211.743L1072.42 267.714L1072.89 267.242L1073.36 267.714L1129.33 211.743L1184.83 267.242L1128.86 323.213L1129.33 323.685L1128.86 324.158L1185.3 380.602L1241.75 437.045L1298.19 493.489L1354.63 549.933L1410.61 605.904L1354.63 661.876L1355.58 662.821L1411.55 606.849L1467.52 662.821L1468.47 661.876L1412.02 605.432L1355.58 548.988L1299.14 492.545L1243.16 436.573L1299.14 380.602L1355.11 324.63L1411.08 380.602L1467.52 437.045L1467.99 436.573L1468.47 437.045L1524.91 380.602L1580.88 324.63L1636.85 380.602L1693.3 437.045L1749.74 493.489L1750.69 492.545L1694.71 436.573L1750.69 380.602L1806.66 324.63L1862.63 380.602L1919.07 437.045L1920.02 436.101L1863.57 379.657L1807.13 323.213L1807.11 323.196ZM1299.61 -410.084L1355.11 -465.583L1410.61 -410.084L1355.11 -354.585L1299.61 -410.084ZM848.074 -184.309L903.573 -239.808L959.072 -184.309L903.573 -128.81L848.074 -184.309ZM1694.71 210.781L1750.21 155.282L1805.71 210.781L1750.21 266.28L1694.71 210.781ZM1579.92 97.9103L1523.95 153.882L1524.42 154.354L1523.95 154.826L1579.92 210.798L1524.42 266.297L1468.45 210.326L1412.48 154.354L1468.45 98.3826L1524.42 42.4112L1579.92 97.9103ZM1468.47 323.196L1412.5 267.225L1467.99 211.726L1523.97 267.697L1579.94 323.669L1524.44 379.168L1468.47 323.196ZM1467.03 97.9103L1411.53 153.409L1356.03 97.9103L1411.53 42.4112L1467.03 97.9103ZM1523.48 41.4665L1467.98 96.9656L1412.01 40.9942L1356.03 -14.9773L1411.53 -70.4764L1467.51 -14.505L1523.48 41.4665ZM1579.92 -240.752L1524.42 -185.253L1468.92 -240.752L1524.42 -296.252L1579.92 -240.752ZM1241.26 -14.9773L1185.76 40.5218L1130.26 -14.9773L1185.76 -70.4764L1241.26 -14.9773ZM1073.83 41.4665L1129.33 -14.0327L1184.83 41.4665L1129.33 96.9656L1073.83 41.4665ZM1186.25 153.865L1130.28 97.8934L1185.78 42.3943L1241.75 98.3657L1297.72 154.337L1242.22 209.836L1186.25 153.865ZM1299.14 153.865L1243.16 97.8934L1298.66 42.3943L1354.63 98.3657L1410.61 154.337L1355.11 209.836L1299.14 153.865ZM1354.15 323.669L1298.65 379.168L1243.15 323.669L1298.65 268.169L1354.15 323.669ZM1186.25 379.64L1130.28 323.669L1185.78 268.169L1241.75 324.141L1297.72 380.112L1242.22 435.612L1186.25 379.64ZM1412.02 379.64L1356.05 323.669L1411.55 268.169L1467.52 324.141L1523.49 380.112L1467.99 435.612L1412.02 379.64ZM1749.72 379.64L1693.75 435.612L1637.78 379.64L1581.34 323.196L1525.37 267.225L1581.34 211.253L1580.86 210.781L1581.34 210.309L1525.37 154.337L1580.86 98.8381L1636.84 154.81L1693.28 211.253L1749.72 267.697L1805.7 323.669L1749.72 379.64Z" fill="#ACA087"/>
<path d="M960.472 437.028L960 436.556L960.472 436.083L904.029 379.64L903.084 380.584L959.056 436.556L903.084 492.527L904.029 493.472L960.472 437.028Z" fill="#ACA087"/>
<path d="M1186.25 492.527L1129.8 436.083L1073.36 379.64L1072.42 380.584L1128.86 437.028L1185.3 493.472L1186.25 492.527Z" fill="#ACA087"/>
<path d="M1.417 549.444L56.9161 493.945L112.888 549.916L113.832 548.972L57.3885 492.528L0.944666 436.084L0 437.029L55.9715 493L0 548.972L0.472333 549.444L0 549.916L55.9715 605.888L0 661.859L0.944666 662.804L56.9161 606.832L112.888 662.804L113.832 661.859L57.3885 605.415L1.417 549.444Z" fill="#ACA087"/>
<path d="M396.051 548.972L395.106 549.916L451.55 606.36L507.977 662.804L508.939 661.859L452.495 605.415L396.051 548.972Z" fill="#ACA087"/>
<path d="M621.337 550.389L677.309 606.36L678.27 605.415L621.826 548.972L621.337 549.444L620.865 548.972L564.421 605.415L564.91 605.888L564.421 606.36L620.865 662.804L621.826 661.859L565.855 605.888L621.337 550.389Z" fill="#ACA087"/>
<path d="M960.472 549.916L959.528 548.972L903.556 604.943L847.585 548.972L847.112 549.444L846.64 548.972L790.196 605.415L790.669 605.888L790.196 606.36L846.64 662.804L847.112 662.332L847.585 662.804L903.556 606.832L959.528 662.804L960.472 661.859L904.501 605.888L960.472 549.916ZM791.63 605.888L847.129 550.389L902.628 605.888L847.129 661.387L791.63 605.888Z" fill="#ACA087"/>
<path d="M1242.22 550.388L1298.19 606.36L1299.14 605.415L1242.69 548.971L1242.22 549.444L1241.75 548.971L1185.78 604.943L1129.8 548.971L1129.33 549.444L1128.86 548.971L1072.42 605.415L1016.44 661.387L960.945 605.888L1016.92 549.916L1016.44 549.444L1016.92 548.971L960.945 493L1016.44 437.501L1072.42 493.472L1073.36 492.528L1016.92 436.084L960.472 379.64L904.029 323.196L847.585 266.752L846.64 267.697L902.612 323.669L846.64 379.64L847.112 380.112L846.64 380.585L902.612 436.556L847.112 492.055L791.141 436.084L790.196 437.028L846.168 493L790.669 548.499L734.697 492.528L678.253 436.084L677.309 437.028L733.753 493.472L789.724 549.444L734.225 604.943L678.253 548.971L621.81 492.528L621.337 493L620.865 492.528L564.421 548.971L508.45 604.943L452.951 549.444L508.922 493.472L508.45 493L508.922 492.528L452.951 436.556L508.45 381.057L564.421 437.028L564.893 436.556L565.366 437.028L621.81 380.585L621.337 380.112L621.81 379.64L565.838 323.669L621.81 267.697L621.337 267.225L621.81 266.752L565.838 210.781L621.81 154.81L678.253 98.3657L677.781 97.8934L678.253 97.4211L621.81 40.9773L565.366 -15.4665L509.394 -71.438L564.893 -126.937L620.865 -70.9656L677.309 -14.5218L678.253 -15.4665L622.282 -71.438L677.781 -126.937L733.753 -70.9656L789.724 -14.9942L733.753 40.9773L734.697 41.9219L790.669 -14.0495L846.168 41.4496L790.196 97.4211L791.141 98.3657L847.585 41.9219L847.112 41.4496L847.585 40.9773L791.141 -15.4665L734.697 -71.9103L678.253 -128.354L677.781 -127.882L677.309 -128.354L621.337 -72.3827L565.366 -128.354L509.394 -184.326L564.893 -239.825L620.865 -183.853L621.81 -184.798L565.366 -241.242L564.893 -240.769L564.421 -241.242L508.45 -185.27L452.478 -241.242L396.034 -297.685L339.591 -354.129L283.147 -410.573L226.72 -467L225.775 -466.055L281.747 -410.084L225.775 -354.112L226.248 -353.64L225.775 -353.168L282.219 -296.724L338.663 -240.28L394.634 -184.309L339.135 -128.81L283.164 -184.781L226.72 -241.225L170.276 -297.669L113.832 -354.112L112.888 -353.168L169.331 -296.724L225.775 -240.28L282.219 -183.836L338.663 -127.393L339.135 -127.865L339.607 -127.393L396.051 -183.836L395.579 -184.309L396.051 -184.781L340.08 -240.752L395.579 -296.252L451.55 -240.28L507.522 -184.309L451.55 -128.337L452.023 -127.865L451.55 -127.393L507.994 -70.9488L564.438 -14.505L620.882 41.9388L676.853 97.9103L621.354 153.409L565.383 97.438L508.939 40.9942L452.495 -15.4497L396.051 -71.8934L395.107 -70.9488L451.078 -14.9773L395.107 40.9942L395.579 41.4665L395.107 41.9388L451.55 98.3826L507.994 154.826L564.438 211.27L620.409 267.242L564.91 322.741L508.939 266.769L507.994 267.714L564.438 324.158L620.409 380.129L564.91 435.628L508.939 379.657L508.467 380.129L507.994 379.657L451.55 436.101L452.023 436.573L451.55 437.045L507.522 493.017L452.023 548.516L396.051 492.545L339.607 436.101L339.135 436.573L338.663 436.101L282.219 492.545L283.164 493.489L339.135 437.518L394.634 493.017L338.663 548.988L282.691 604.96L226.72 548.988L170.276 492.545L113.832 436.101L57.8608 380.129L113.36 324.63L169.331 380.602L225.775 437.045L226.248 436.573L226.72 437.045L283.164 380.602L282.691 380.129L283.164 379.657L226.72 323.213L170.276 266.769L113.832 210.326L112.888 211.27L168.859 267.242L112.888 323.213L56.9161 379.185L0.944666 323.196L0 324.141L56.4438 380.585L112.888 437.028L169.331 493.472L225.775 549.916L281.747 605.888L225.775 661.859L226.72 662.804L282.691 606.832L338.663 662.804L339.135 662.331L339.607 662.804L395.579 606.832L451.55 662.804L452.495 661.859L396.051 605.415L340.08 549.444L395.579 493.945L451.55 549.916L507.994 606.36L564.438 662.804L565.383 661.859L509.411 605.888L565.383 549.916L621.354 493.945L677.326 549.916L733.297 605.888L677.798 661.387L621.826 605.415L620.882 606.36L677.326 662.804L677.798 662.331L678.27 662.804L734.242 606.832L790.213 662.804L791.158 661.859L735.186 605.888L791.158 549.916L847.129 493.945L903.101 549.916L903.573 549.444L904.045 549.916L960.017 493.945L1015.52 549.444L959.545 605.415L960.017 605.888L959.545 606.36L1015.99 662.804L1016.46 662.331L1016.93 662.804L1072.9 606.832L1128.88 662.804L1129.82 661.859L1073.85 605.888L1129.35 550.388L1185.32 606.36L1241.76 662.804L1242.71 661.859L1186.74 605.888L1242.24 550.388H1242.22ZM283.164 -297.669L227.192 -353.64L282.691 -409.139L338.663 -353.168L394.634 -297.196L339.135 -241.697L283.164 -297.669ZM452.967 -127.865L508.467 -183.364L563.966 -127.865L508.467 -72.3658L452.967 -127.865ZM508.939 153.865L452.495 97.4211L396.524 41.4496L452.023 -14.0495L507.994 41.9219L564.438 98.3657L620.409 154.337L564.91 209.836L508.939 153.865ZM225.775 324.141L281.747 380.112L226.248 435.612L170.276 379.64L114.305 323.669L169.804 268.169L225.775 324.141ZM283.636 605.888L339.135 550.388L394.634 605.888L339.135 661.387L283.636 605.888ZM848.074 493L904.045 437.028L903.573 436.556L904.045 436.084L848.074 380.112L903.573 324.613L959.545 380.585L1015.52 436.556L959.545 492.528L903.573 548.499L848.074 493Z" fill="#ACA087"/>
<path d="M226.72 606.359L226.248 605.887L226.72 605.415L170.276 548.971L113.832 492.527L57.3885 436.083L0.944666 379.64L0 380.584L56.4438 437.028L112.888 493.472L168.859 549.443L113.36 604.942L57.3885 548.971L56.4438 549.916L112.888 606.359L169.331 662.803L169.804 662.331L170.276 662.803L226.72 606.359ZM114.305 605.887L169.804 550.388L225.303 605.887L169.804 661.386L114.305 605.887Z" fill="#ACA087"/>
<path d="M1129.81 605.411L1128.86 606.365L1185.3 662.81L1186.26 661.855L1129.81 605.411Z" fill="#ACA087"/>
<path d="M1355.58 606.36L1355.11 605.888L1355.58 605.415L1299.13 548.971L1242.69 492.528L1186.25 436.084L1129.8 379.64L1073.83 323.669L1129.8 267.697L1128.86 266.752L1072.89 322.724L1016.92 266.752L1016.44 267.225L1015.97 266.752L960 322.724L904.028 266.752L847.585 210.309L791.613 154.337L847.585 98.3657L903.556 42.3943L959.527 98.3657L1015.5 154.337L960 209.836L904.028 153.865L903.084 154.81L959.527 211.253L960 210.781L960.472 211.253L1016.44 155.282L1072.41 211.253L1072.89 210.781L1073.36 211.253L1129.33 155.282L1185.3 211.253L1241.75 267.697L1242.22 267.225L1242.69 267.697L1298.66 211.726L1354.63 267.697L1355.11 267.225L1355.58 267.697L1412.02 211.253L1411.08 210.309L1355.11 266.28L1299.13 210.309L1298.66 210.781L1298.19 210.309L1242.22 266.28L1186.25 210.309L1129.8 153.865L1073.36 97.4211L1017.39 41.4496L1073.36 -14.5218L1129.8 -70.9656L1128.86 -71.9103L1072.41 -15.4665L1016.44 40.5049L960.472 -15.4665L904.501 -71.438L960 -126.937L1015.97 -70.9656L1016.44 -71.438L1016.92 -70.9656L1073.36 -127.409L1072.89 -127.882L1073.36 -128.354L1016.92 -184.798L960.472 -241.242L959.527 -240.297L1015.97 -183.853L1071.94 -127.882L1016.44 -72.3827L960.472 -128.354L960 -127.882L959.527 -128.354L903.556 -72.3827L847.585 -128.354L791.613 -184.326L847.585 -240.297L846.64 -241.242L790.668 -185.27L735.169 -240.769L791.141 -296.741L790.668 -297.213L791.141 -297.685L735.169 -353.657L790.668 -409.156L846.64 -353.185L903.084 -296.741L904.028 -297.685L847.585 -354.129L791.613 -410.101L847.112 -465.583L903.084 -409.612L959.527 -353.168L1015.97 -296.724L1072.41 -240.28L1073.36 -241.225L1016.92 -297.669L960.472 -354.112L904.501 -410.084L960 -465.583L1015.97 -409.612L1016.92 -410.556L960.472 -467L960 -466.528L959.527 -467L903.556 -411.029L847.585 -467L847.112 -466.528L846.64 -467L790.668 -411.029L734.714 -467L733.769 -466.055L789.741 -410.084L734.241 -354.585L678.27 -410.556L621.826 -467L620.882 -466.055L677.325 -409.612L733.769 -353.168L789.741 -297.196L733.769 -241.225L734.241 -240.753L733.769 -240.28L789.741 -184.309L734.241 -128.81L678.27 -184.781L621.826 -241.225L565.382 -297.669L508.939 -354.112L452.495 -410.556L396.051 -467L395.106 -466.055L451.078 -410.084L395.579 -354.585L339.607 -410.556L283.163 -467L282.219 -466.055L338.663 -409.612L395.106 -353.168L451.55 -296.724L507.994 -240.28L508.466 -240.753L508.939 -240.28L564.91 -296.252L620.882 -240.28L676.853 -184.309L621.354 -128.81L565.382 -184.781L564.438 -183.836L620.882 -127.393L621.354 -127.865L621.826 -127.393L677.798 -183.364L733.769 -127.393L790.213 -70.9488L846.657 -14.505L902.628 41.4665L846.657 97.4379L790.685 153.409L735.186 97.9103L791.158 41.9388L790.213 40.9942L734.241 96.9656L678.742 41.4665L734.714 -14.505L734.241 -14.9773L734.714 -15.4496L678.27 -71.8934L677.325 -70.9488L733.297 -14.9773L677.798 40.5218L621.826 -15.4496L565.382 -71.8934L564.438 -70.9488L620.882 -14.505L677.325 41.9388L733.297 97.9103L677.325 153.882L620.882 210.326L621.354 210.798L620.882 211.27L676.853 267.242L620.882 323.213L621.354 323.685L620.882 324.158L676.853 380.129L620.882 436.101L564.91 492.072L508.939 436.101L507.994 437.045L563.965 493.017L507.994 548.988L508.939 549.933L565.382 493.489L621.354 437.518L677.325 493.489L733.769 549.933L734.714 548.988L678.27 492.544L622.298 436.573L677.798 381.074L733.769 437.045L790.213 493.489L791.158 492.544L735.186 436.573L790.685 381.074L846.657 437.045L847.601 436.101L791.63 380.129L847.601 324.158L847.129 323.685L847.601 323.213L791.63 267.242L847.129 211.742L903.1 267.714L959.544 324.158L1015.99 380.602L1072.43 437.045L1128.4 493.017L1072.9 548.516L1016.93 492.544L1015.99 493.489L1071.96 549.461L1015.99 605.432L1016.93 606.377L1073.38 549.933L1129.35 493.961L1185.32 549.933L1185.79 549.461L1186.26 549.933L1242.24 493.961L1298.21 549.933L1354.18 605.904L1298.68 661.404L1242.71 605.432L1241.76 606.377L1298.21 662.821L1298.68 662.348L1299.15 662.821L1355.6 606.377L1355.58 606.36ZM452.495 -297.669L396.523 -353.64L452.022 -409.139L507.994 -353.168L563.965 -297.196L508.466 -241.697L452.495 -297.669ZM1128.39 154.337L1072.89 209.836L1017.39 154.337L1072.89 98.8381L1128.39 154.337ZM1015.97 41.9388L1071.94 97.9103L1016.44 153.409L960.472 97.4379L904.028 40.9942L848.057 -14.9773L903.556 -70.4764L959.527 -14.505L1015.97 41.9388ZM735.186 -127.865L790.685 -183.364L846.184 -127.865L790.685 -72.3658L735.186 -127.865ZM791.63 -71.4211L847.129 -126.92L902.628 -71.4211L847.129 -15.922L791.63 -71.4211ZM846.167 210.781L790.196 266.752L790.668 267.225L790.196 267.697L846.167 323.669L790.668 379.168L734.697 323.196L678.253 266.752L622.282 210.781L677.781 155.282L733.752 211.253L734.697 210.309L678.725 154.337L734.225 98.8381L790.196 154.81L846.167 210.781ZM677.781 379.168L622.282 323.669L677.781 268.169L733.28 323.669L677.781 379.168ZM678.742 380.112L734.241 324.613L789.741 380.112L734.241 435.612L678.742 380.112ZM960.944 323.669L1016.44 268.169L1071.94 323.669L1016.44 379.168L960.944 323.669ZM1129.8 492.528L1073.36 436.084L1017.39 380.112L1072.89 324.613L1128.86 380.585L1185.3 437.028L1241.27 493L1185.77 548.499L1129.8 492.528Z" fill="#ACA087"/>
</g>
</g>
<defs>
<clipPath id="clip0_2113_10995">
<rect width="1920" height="1080" fill="white" transform="translate(0 -467)"/>
</clipPath>
</defs>
</svg>
